<svg width="55" height="55" viewBox="0 0 55 55" fill="none" xmlns="http://www.w3.org/2000/svg">
<path d="M41.6227 24.3212C40.8658 25.0827 40.2862 26.0018 39.9251 27.0127C39.564 28.0239 39.4304 29.1022 39.5337 30.1708L39.4977 30.1349C39.604 31.3929 39.4342 32.6587 39.0006 33.8444C38.5671 35.0299 37.88 36.1065 36.9875 36.9992C36.0948 37.8918 35.0181 38.579 33.8324 39.0124C32.6469 39.4459 31.381 39.6157 30.1232 39.5094L30.1591 39.5454C28.6545 39.4054 27.1432 39.7327 25.8313 40.483C24.5196 41.2334 23.4711 42.3699 22.829 43.738C22.1869 45.106 21.9822 46.6386 22.243 48.1273C22.5041 49.6158 23.2176 50.9876 24.2867 52.0557C25.3558 53.1237 26.7282 53.8361 28.2169 54.0955C29.7058 54.3552 31.2382 54.1491 32.6056 53.5058C33.973 52.8623 35.1086 51.813 35.8577 50.5005C36.6069 49.188 36.933 47.6765 36.7916 46.1719L36.8295 46.2078C36.7233 44.95 36.8929 43.6841 37.3264 42.4984C37.76 41.3129 38.4472 40.2362 39.3398 39.3435C40.2325 38.451 41.3091 37.7637 42.4946 37.3304C43.6803 36.8968 44.9461 36.727 46.2041 36.8333L46.1662 36.7973C47.3952 36.9078 48.6324 36.7063 49.763 36.2114C50.8934 35.7165 51.8808 34.9442 52.6333 33.9662C53.3858 32.9882 53.8795 31.8358 54.0681 30.6164C54.2568 29.3967 54.1346 28.1493 53.7128 26.9894C53.291 25.8296 52.5832 24.7951 51.6551 23.9817C50.727 23.1683 49.6086 22.6023 48.4036 22.3362C47.1985 22.0702 45.9457 22.1126 44.7614 22.4595C43.5771 22.8066 42.4996 23.4469 41.6287 24.3212H41.6227Z" fill="url(#paint0_linear_164_243)"/>
<path d="M26.8897 34.836L26.8517 34.8001C27.9208 34.9077 29.0004 34.7765 30.0128 34.4158C31.0249 34.0551 31.9444 33.4742 32.7045 32.7146C33.4645 31.9551 34.0464 31.0361 34.4077 30.0241C34.7692 29.0122 34.9012 27.9327 34.7943 26.8634L34.8323 26.8994C34.726 25.6414 34.8958 24.3756 35.3292 23.1899C35.7628 22.0044 36.45 20.9277 37.3425 20.035C38.2352 19.1425 39.3119 18.4553 40.4974 18.0219C41.6831 17.5882 42.9489 17.4186 44.2069 17.5248L44.1689 17.4889C45.6738 17.6303 47.1854 17.3038 48.4979 16.5544C49.8106 15.8049 50.8599 14.6688 51.503 13.3011C52.1461 11.9333 52.3516 10.4004 52.0916 8.91154C51.8315 7.42266 51.1186 6.05026 50.0497 4.98151C48.981 3.91278 47.6086 3.19973 46.1197 2.93966C44.6309 2.67957 43.0981 2.8851 41.7302 3.52822C40.3624 4.17131 39.2264 5.22071 38.4769 6.53325C37.7273 7.84577 37.401 9.35755 37.5424 10.8623L37.5065 10.8244C37.6129 12.0824 37.4436 13.3484 37.0102 14.5342C36.5768 15.7199 35.8896 16.7968 34.9971 17.6896C34.1043 18.5821 33.0275 19.2693 31.8418 19.7027C30.6559 20.1361 29.3899 20.3054 28.1319 20.199L28.1678 20.2369C27.0988 20.1293 26.0189 20.2605 25.0068 20.6212C23.9946 20.9817 23.0751 21.5628 22.315 22.3223C21.5549 23.0818 20.9731 24.0009 20.6117 25.0129C20.2504 26.0248 20.1184 27.1043 20.2252 28.1736L20.1893 28.1376C20.2951 29.3954 20.1252 30.6612 19.6916 31.8467C19.2578 33.032 18.5708 34.1086 17.6783 35.0012C16.7857 35.8937 15.7091 36.5807 14.5237 37.0145C13.3383 37.4481 12.0725 37.618 10.8147 37.5122L10.8506 37.5481C9.34584 37.4067 7.83407 37.7331 6.52153 38.4826C5.20901 39.2321 4.15961 40.3681 3.51651 41.7359C2.87339 43.1038 2.66785 44.6366 2.92794 46.1254C3.18802 47.6143 3.90108 48.9867 4.96981 50.0554C6.03856 51.1243 7.41095 51.8373 8.89984 52.0973C10.3887 52.3573 11.9216 52.1518 13.2894 51.5087C14.6571 50.8656 15.7932 49.8163 16.5427 48.5038C17.2922 47.1911 17.6186 45.6795 17.4772 44.1746L17.5151 44.2106C17.4089 42.9526 17.5786 41.6868 18.0122 40.5011C18.4456 39.3156 19.1328 38.2389 20.0253 37.3462C20.918 36.4537 21.9947 35.7665 23.1802 35.3331C24.3659 34.8995 25.6317 34.7298 26.8897 34.836Z" fill="url(#paint1_linear_164_243)"/>
<path d="M13.5053 30.8279C14.2622 30.0666 14.8417 29.1475 15.2025 28.1363C15.5633 27.1252 15.6964 26.0467 15.5923 24.9782L15.6302 25.0142C15.5239 23.756 15.6936 22.4896 16.1274 21.3037C16.5612 20.1178 17.2487 19.041 18.1418 18.1482C19.0349 17.2556 20.112 16.5686 21.2981 16.1353C22.4842 15.702 23.7506 15.5328 25.0088 15.6396L24.9708 15.6037C26.4751 15.7446 27.9863 15.4181 29.2982 14.6687C30.6102 13.9193 31.6589 12.7835 32.3017 11.4161C32.9444 10.0488 33.1497 8.51647 32.8897 7.02814C32.6297 5.53981 31.9167 4.16794 30.8484 3.09959C29.7801 2.03124 28.4081 1.31842 26.9198 1.05835C25.4316 0.798267 23.8992 1.00361 22.5319 1.64633C21.1645 2.28905 20.0287 3.33789 19.2794 4.64981C18.5299 5.96173 18.2033 7.47289 18.3443 8.97717L18.3084 8.94122C18.4146 10.1991 18.2449 11.465 17.8113 12.6506C17.3777 13.8362 16.6907 14.9129 15.7981 15.8055C14.9055 16.6982 13.8288 17.3852 12.6432 17.8187C11.4576 18.2523 10.1917 18.422 8.93381 18.3158L8.96976 18.3517C7.74066 18.2415 6.50361 18.4434 5.37327 18.9385C4.24293 19.4336 3.25584 20.2061 2.5035 21.1843C1.75116 22.1623 1.2579 23.3146 1.06941 24.5341C0.880943 25.7537 1.00335 27.0011 1.42528 28.1607C1.84722 29.3204 2.55506 30.3547 3.4832 31.168C4.41133 31.9814 5.52972 32.5472 6.73476 32.8132C7.93977 33.079 9.19244 33.0365 10.3767 32.6896C11.5609 32.3425 12.6384 31.7022 13.5092 30.8279H13.5053Z" fill="url(#paint2_linear_164_243)"/>
<defs>
<linearGradient id="paint0_linear_164_243" x1="38.1435" y1="22.1638" x2="38.1435" y2="54.2047" gradientUnits="userSpaceOnUse">
<stop stop-color="#4D0790"/>
<stop offset="1" stop-color="#070607"/>
</linearGradient>
<linearGradient id="paint1_linear_164_243" x1="27.5097" y1="2.83008" x2="27.5097" y2="52.2068" gradientUnits="userSpaceOnUse">
<stop stop-color="#4D0790"/>
<stop offset="1" stop-color="#070607"/>
</linearGradient>
<linearGradient id="paint2_linear_164_243" x1="16.9913" y1="0.94873" x2="16.9913" y2="32.9854" gradientUnits="userSpaceOnUse">
<stop stop-color="#4D0790"/>
<stop offset="1" stop-color="#070607"/>
</linearGradient>
</defs>
</svg>
