<svg width="711" height="123" viewBox="0 0 711 123" fill="none" xmlns="http://www.w3.org/2000/svg">
<path d="M683.202 93.3888C678.797 93.3888 674.828 92.4037 671.293 90.4333C667.758 88.405 664.947 85.5944 662.861 82.0014C660.832 78.4084 659.818 74.1779 659.818 69.31C659.818 64.3841 660.832 60.1247 662.861 56.5317C664.947 52.9387 667.758 50.157 671.293 48.1866C674.828 46.2163 678.797 45.2311 683.202 45.2311C687.143 45.2311 690.591 46.1004 693.546 47.8389C696.502 49.5775 698.791 52.2143 700.413 55.7493C702.036 59.2844 702.847 63.8046 702.847 69.31C702.847 74.7574 702.065 79.2776 700.5 82.8706C698.936 86.4057 696.676 89.0425 693.72 90.781C690.822 92.5196 687.316 93.3888 683.202 93.3888ZM685.549 82.2621C687.751 82.2621 689.75 81.7406 691.547 80.6975C693.343 79.6543 694.763 78.1766 695.806 76.2642C696.907 74.2938 697.458 71.9757 697.458 69.31C697.458 66.5863 696.907 64.2682 695.806 62.3558C694.763 60.4434 693.343 58.9656 691.547 57.9225C689.75 56.8794 687.751 56.3578 685.549 56.3578C683.289 56.3578 681.26 56.8794 679.464 57.9225C677.667 58.9656 676.219 60.4434 675.118 62.3558C674.074 64.2682 673.553 66.5863 673.553 69.31C673.553 71.9757 674.074 74.2938 675.118 76.2642C676.219 78.1766 677.667 79.6543 679.464 80.6975C681.26 81.7406 683.289 82.2621 685.549 82.2621ZM697.806 92.6934V83.1314L698.066 69.223L697.197 55.4016V28.1934H710.758V92.6934H697.806Z" fill="#F9FAFB"/>
<path d="M624.626 92.694V45.9271H637.578V59.1401L635.753 55.3153C637.144 52.012 639.375 49.5201 642.446 47.8395C645.517 46.101 649.255 45.2317 653.66 45.2317V57.7492C653.08 57.6913 652.559 57.6623 652.095 57.6623C651.631 57.6043 651.139 57.5754 650.617 57.5754C646.908 57.5754 643.895 58.6475 641.577 60.7917C639.317 62.8779 638.187 66.1522 638.187 70.6145V92.694H624.626Z" fill="#F9FAFB"/>
<path d="M597.924 92.694V83.5666L597.054 81.5673V65.225C597.054 62.3274 596.156 60.0673 594.36 58.4446C592.621 56.822 589.926 56.0107 586.276 56.0107C583.784 56.0107 581.321 56.4163 578.887 57.2277C576.511 57.981 574.482 59.0242 572.802 60.357L567.934 50.882C570.484 49.0855 573.555 47.6946 577.148 46.7095C580.741 45.7243 584.392 45.2317 588.101 45.2317C595.229 45.2317 600.763 46.9123 604.704 50.2735C608.645 53.6347 610.615 58.8793 610.615 66.0073V92.694H597.924ZM583.668 93.3894C580.017 93.3894 576.887 92.7809 574.28 91.5639C571.672 90.289 569.672 88.5794 568.282 86.4352C566.891 84.291 566.195 81.886 566.195 79.2203C566.195 76.4386 566.862 74.0046 568.195 71.9184C569.585 69.8321 571.759 68.2095 574.714 67.0504C577.67 65.8335 581.523 65.225 586.276 65.225H598.706V73.1354H587.753C584.566 73.1354 582.364 73.6569 581.147 74.7C579.988 75.7432 579.408 77.0471 579.408 78.6118C579.408 80.3503 580.075 81.7412 581.408 82.7843C582.798 83.7695 584.682 84.2621 587.058 84.2621C589.318 84.2621 591.346 83.7405 593.143 82.6974C594.939 81.5963 596.243 80.0026 597.054 77.9164L599.141 84.1751C598.156 87.1886 596.359 89.4777 593.751 91.0424C591.143 92.6071 587.782 93.3894 583.668 93.3894Z" fill="#F9FAFB"/>
<path d="M533.555 93.3894C528.571 93.3894 524.138 92.3463 520.255 90.26C516.43 88.1738 513.388 85.3342 511.127 81.7412C508.925 78.0902 507.824 73.9467 507.824 69.3106C507.824 64.6165 508.925 60.4729 511.127 56.8799C513.388 53.229 516.43 50.3894 520.255 48.3611C524.138 46.2748 528.571 45.2317 533.555 45.2317C538.481 45.2317 542.885 46.2748 546.768 48.3611C550.65 50.3894 553.693 53.2 555.895 56.793C558.097 60.386 559.198 64.5585 559.198 69.3106C559.198 73.9467 558.097 78.0902 555.895 81.7412C553.693 85.3342 550.65 88.1738 546.768 90.26C542.885 92.3463 538.481 93.3894 533.555 93.3894ZM533.555 82.2627C535.815 82.2627 537.843 81.7412 539.64 80.698C541.436 79.6549 542.856 78.1771 543.899 76.2647C544.942 74.2944 545.464 71.9763 545.464 69.3106C545.464 66.5868 544.942 64.2688 543.899 62.3564C542.856 60.444 541.436 58.9662 539.64 57.9231C537.843 56.8799 535.815 56.3584 533.555 56.3584C531.295 56.3584 529.266 56.8799 527.47 57.9231C525.673 58.9662 524.225 60.444 523.123 62.3564C522.08 64.2688 521.559 66.5868 521.559 69.3106C521.559 71.9763 522.08 74.2944 523.123 76.2647C524.225 78.1771 525.673 79.6549 527.47 80.698C529.266 81.7412 531.295 82.2627 533.555 82.2627Z" fill="#F9FAFB"/>
<path d="M477.19 93.3888C473.075 93.3888 469.54 92.5196 466.585 90.781C463.629 89.0425 461.369 86.4057 459.804 82.8706C458.24 79.2776 457.457 74.7574 457.457 69.31C457.457 63.8046 458.269 59.2844 459.891 55.7493C461.572 52.2143 463.89 49.5775 466.845 47.8389C469.801 46.1004 473.249 45.2311 477.19 45.2311C481.594 45.2311 485.535 46.2163 489.012 48.1866C492.547 50.157 495.329 52.9387 497.357 56.5317C499.443 60.1247 500.486 64.3841 500.486 69.31C500.486 74.1779 499.443 78.4084 497.357 82.0014C495.329 85.5944 492.547 88.405 489.012 90.4333C485.535 92.4037 481.594 93.3888 477.19 93.3888ZM449.547 92.6934V28.1934H463.108V55.4016L462.238 69.223L462.499 83.1314V92.6934H449.547ZM474.843 82.2621C477.103 82.2621 479.102 81.7406 480.841 80.6975C482.637 79.6543 484.057 78.1766 485.1 76.2642C486.201 74.2938 486.752 71.9757 486.752 69.31C486.752 66.5863 486.201 64.2682 485.1 62.3558C484.057 60.4434 482.637 58.9656 480.841 57.9225C479.102 56.8794 477.103 56.3578 474.843 56.3578C472.583 56.3578 470.554 56.8794 468.758 57.9225C466.961 58.9656 465.542 60.4434 464.498 62.3558C463.455 64.2682 462.934 66.5863 462.934 69.31C462.934 71.9757 463.455 74.2938 464.498 76.2642C465.542 78.1766 466.961 79.6543 468.758 80.6975C470.554 81.7406 472.583 82.2621 474.843 82.2621Z" fill="#F9FAFB"/>
<path d="M407.701 93.3888C403.297 93.3888 399.327 92.4037 395.792 90.4333C392.257 88.405 389.446 85.5944 387.36 82.0014C385.332 78.4084 384.317 74.1779 384.317 69.31C384.317 64.3841 385.332 60.1247 387.36 56.5317C389.446 52.9387 392.257 50.157 395.792 48.1866C399.327 46.2163 403.297 45.2311 407.701 45.2311C411.642 45.2311 415.09 46.1004 418.045 47.8389C421.001 49.5775 423.29 52.2143 424.912 55.7493C426.535 59.2844 427.346 63.8046 427.346 69.31C427.346 74.7574 426.564 79.2776 424.999 82.8706C423.435 86.4057 421.175 89.0425 418.219 90.781C415.321 92.5196 411.815 93.3888 407.701 93.3888ZM410.048 82.2621C412.25 82.2621 414.249 81.7406 416.046 80.6975C417.842 79.6543 419.262 78.1766 420.305 76.2642C421.406 74.2938 421.957 71.9757 421.957 69.31C421.957 66.5863 421.406 64.2682 420.305 62.3558C419.262 60.4434 417.842 58.9656 416.046 57.9225C414.249 56.8794 412.25 56.3578 410.048 56.3578C407.788 56.3578 405.759 56.8794 403.963 57.9225C402.166 58.9656 400.718 60.4434 399.617 62.3558C398.573 64.2682 398.052 66.5863 398.052 69.31C398.052 71.9757 398.573 74.2938 399.617 76.2642C400.718 78.1766 402.166 79.6543 403.963 80.6975C405.759 81.7406 407.788 82.2621 410.048 82.2621ZM422.305 92.6934V83.1314L422.565 69.223L421.696 55.4016V28.1934H435.257V92.6934H422.305Z" fill="#F9FAFB"/>
<path d="M360.578 92.694V83.5666L359.709 81.5673V65.225C359.709 62.3274 358.811 60.0673 357.014 58.4446C355.276 56.822 352.581 56.0107 348.93 56.0107C346.438 56.0107 343.975 56.4163 341.541 57.2277C339.165 57.981 337.137 59.0242 335.456 60.357L330.588 50.882C333.138 49.0855 336.209 47.6946 339.802 46.7095C343.395 45.7243 347.046 45.2317 350.755 45.2317C357.883 45.2317 363.418 46.9123 367.358 50.2735C371.299 53.6347 373.269 58.8793 373.269 66.0073V92.694H360.578ZM346.322 93.3894C342.671 93.3894 339.542 92.7809 336.934 91.5639C334.326 90.289 332.327 88.5794 330.936 86.4352C329.545 84.291 328.85 81.886 328.85 79.2203C328.85 76.4386 329.516 74.0046 330.849 71.9184C332.24 69.8321 334.413 68.2095 337.368 67.0504C340.324 65.8335 344.178 65.225 348.93 65.225H361.36V73.1354H350.408C347.22 73.1354 345.018 73.6569 343.801 74.7C342.642 75.7432 342.063 77.0471 342.063 78.6118C342.063 80.3503 342.729 81.7412 344.062 82.7843C345.453 83.7695 347.336 84.2621 349.712 84.2621C351.972 84.2621 354.001 83.7405 355.797 82.6974C357.594 81.5963 358.897 80.0026 359.709 77.9164L361.795 84.1751C360.81 87.1886 359.013 89.4777 356.406 91.0424C353.798 92.6071 350.437 93.3894 346.322 93.3894Z" fill="#F9FAFB"/>
<path d="M299.798 93.3894C294.466 93.3894 289.772 92.3463 285.716 90.26C281.717 88.1738 278.617 85.3342 276.415 81.7412C274.212 78.0902 273.111 73.9467 273.111 69.3106C273.111 64.6165 274.183 60.4729 276.328 56.8799C278.53 53.229 281.514 50.3894 285.281 48.3611C289.048 46.2748 293.307 45.2317 298.059 45.2317C302.638 45.2317 306.752 46.2169 310.403 48.1872C314.112 50.0996 317.039 52.8813 319.183 56.5322C321.327 60.1252 322.399 64.4426 322.399 69.4844C322.399 70.006 322.37 70.6145 322.312 71.3099C322.254 71.9474 322.196 72.5558 322.138 73.1354H284.151V65.225H315.01L309.795 67.572C309.795 65.138 309.302 63.0228 308.317 61.2263C307.332 59.4298 305.97 58.039 304.231 57.0538C302.493 56.0107 300.464 55.4891 298.146 55.4891C295.828 55.4891 293.771 56.0107 291.975 57.0538C290.236 58.039 288.874 59.4588 287.889 61.3132C286.904 63.1097 286.411 65.254 286.411 67.7459V69.8321C286.411 72.382 286.962 74.6421 288.063 76.6125C289.222 78.5249 290.816 80.0026 292.844 81.0457C294.93 82.0309 297.364 82.5235 300.146 82.5235C302.638 82.5235 304.811 82.1468 306.665 81.3935C308.578 80.6401 310.316 79.51 311.881 78.0033L319.096 85.8267C316.952 88.2607 314.257 90.1441 311.012 91.477C307.766 92.7519 304.028 93.3894 299.798 93.3894Z" fill="#F9FAFB"/>
<path d="M238.093 92.694V45.9271H251.045V59.1401L249.219 55.3153C250.61 52.012 252.841 49.5201 255.913 47.8395C258.984 46.101 262.722 45.2317 267.126 45.2317V57.7492C266.547 57.6913 266.025 57.6623 265.562 57.6623C265.098 57.6043 264.606 57.5754 264.084 57.5754C260.375 57.5754 257.362 58.6475 255.044 60.7917C252.783 62.8779 251.653 66.1522 251.653 70.6145V92.694H238.093Z" fill="#F9FAFB"/>
<path d="M203.979 93.3888C199.864 93.3888 196.329 92.5196 193.374 90.781C190.418 89.0425 188.158 86.4057 186.593 82.8706C185.029 79.2776 184.246 74.7574 184.246 69.31C184.246 63.8046 185.058 59.2844 186.68 55.7493C188.361 52.2143 190.679 49.5775 193.634 47.8389C196.59 46.1004 200.038 45.2311 203.979 45.2311C208.383 45.2311 212.324 46.2163 215.801 48.1866C219.336 50.157 222.118 52.9387 224.146 56.5317C226.232 60.1247 227.275 64.3841 227.275 69.31C227.275 74.1779 226.232 78.4084 224.146 82.0014C222.118 85.5944 219.336 88.405 215.801 90.4333C212.324 92.4037 208.383 93.3888 203.979 93.3888ZM176.336 92.6934V28.1934H189.897V55.4016L189.027 69.223L189.288 83.1314V92.6934H176.336ZM201.632 82.2621C203.892 82.2621 205.891 81.7406 207.63 80.6975C209.426 79.6543 210.846 78.1766 211.889 76.2642C212.99 74.2938 213.541 71.9757 213.541 69.31C213.541 66.5863 212.99 64.2682 211.889 62.3558C210.846 60.4434 209.426 58.9656 207.63 57.9225C205.891 56.8794 203.892 56.3578 201.632 56.3578C199.372 56.3578 197.343 56.8794 195.547 57.9225C193.75 58.9656 192.331 60.4434 191.287 62.3558C190.244 64.2682 189.723 66.5863 189.723 69.31C189.723 71.9757 190.244 74.2938 191.287 76.2642C192.331 78.1766 193.75 79.6543 195.547 80.6975C197.343 81.7406 199.372 82.2621 201.632 82.2621Z" fill="#F9FAFB"/>
<path d="M93.2464 53.6276C91.5097 55.3748 90.1799 57.4836 89.3514 59.8032C88.5229 62.1233 88.2163 64.5973 88.4532 67.0494L88.3707 66.9669C88.6145 69.8533 88.225 72.7577 87.2302 75.4782C86.2353 78.1983 84.659 80.6687 82.6111 82.717C80.5628 84.7649 78.0924 86.3417 75.3719 87.3361C72.6518 88.3309 69.747 88.7204 66.861 88.4766L66.9435 88.5591C63.4911 88.2379 60.0236 88.9889 57.0134 90.7105C54.0037 92.4321 51.598 95.04 50.1247 98.1789C48.6515 101.318 48.1818 104.834 48.7803 108.25C49.3792 111.665 51.0165 114.813 53.4694 117.264C55.9224 119.714 59.0714 121.349 62.4871 121.944C65.9033 122.54 69.4193 122.067 72.5569 120.591C75.6945 119.114 78.3 116.707 80.0189 113.695C81.7377 110.684 82.486 107.216 82.1616 103.763L82.2487 103.846C82.0049 100.96 82.3939 98.0552 83.3888 95.3346C84.3836 92.6145 85.9604 90.1442 88.0083 88.0958C90.0566 86.048 92.527 84.4712 95.2471 83.4768C97.9676 82.4819 100.872 82.0924 103.758 82.3362L103.671 82.2537C106.491 82.5071 109.33 82.0448 111.924 80.9093C114.518 79.7737 116.783 78.0017 118.51 75.7577C120.237 73.5137 121.369 70.8697 121.802 68.0717C122.235 65.2732 121.955 62.4111 120.987 59.7496C120.019 57.0886 118.395 54.715 116.266 52.8485C114.136 50.9821 111.57 49.6835 108.805 49.0731C106.04 48.4627 103.165 48.5599 100.448 49.3558C97.7307 50.1523 95.2585 51.6214 93.2601 53.6276H93.2464Z" fill="url(#paint0_linear_164_225)"/>
<path d="M59.442 77.7538L59.3549 77.6713C61.8079 77.9183 64.2851 77.6172 66.6079 76.7896C68.9303 75.962 71.04 74.629 72.7841 72.8863C74.5277 71.1437 75.863 69.0348 76.6919 66.7129C77.5214 64.3911 77.8243 61.9143 77.5791 59.4609L77.6662 59.5433C77.4224 56.6569 77.8119 53.7526 78.8063 51.032C79.8011 48.3119 81.3779 45.8415 83.4258 43.7932C85.4741 41.7453 87.9445 40.1685 90.6646 39.1742C93.3851 38.1791 96.2895 37.79 99.1759 38.0336L99.0888 37.9511C102.542 38.2756 106.01 37.5266 109.022 35.807C112.034 34.0874 114.441 31.4807 115.917 28.3423C117.392 25.204 117.864 21.6869 117.267 18.2707C116.671 14.8545 115.035 11.7055 112.582 9.25331C110.13 6.80114 106.981 5.16504 103.565 4.56832C100.149 3.97156 96.6318 4.44313 93.4933 5.91875C90.3548 7.39433 87.7483 9.80215 86.0286 12.8137C84.3088 15.8253 83.56 19.294 83.8845 22.7468L83.802 22.6597C84.0462 25.5461 83.6576 28.451 82.6633 31.1717C81.6689 33.8924 80.0921 36.3631 78.0442 38.4117C75.9959 40.4595 73.5251 42.0363 70.8045 43.0307C68.0835 44.0251 65.1787 44.4137 62.2922 44.1694L62.3747 44.2565C59.9218 44.0095 57.4441 44.3106 55.1217 45.1381C52.7994 45.9653 50.6896 47.2987 48.9456 49.0414C47.2015 50.7841 45.8667 52.8929 45.0373 55.2148C44.2083 57.5367 43.9054 60.0135 44.1506 62.4669L44.0681 62.3844C44.311 65.2704 43.921 68.1747 42.9262 70.8948C41.9309 73.6145 40.3545 76.0848 38.3066 78.1327C36.2586 80.1806 33.7885 81.7569 31.0686 82.7522C28.3487 83.7471 25.4444 84.137 22.5584 83.8942L22.6408 83.9766C19.1881 83.6522 15.7194 84.401 12.7078 86.1207C9.69622 87.8405 7.28841 90.447 5.81283 93.5855C4.33721 96.7239 3.86559 100.241 4.46236 103.657C5.05912 107.073 6.69522 110.222 9.14739 112.674C11.5996 115.127 14.7485 116.763 18.1648 117.359C21.581 117.956 25.0981 117.484 28.2364 116.009C31.3747 114.533 33.9815 112.126 35.7011 109.114C37.4209 106.102 38.1696 102.634 37.8452 99.181L37.9323 99.2635C37.6885 96.377 38.078 93.4727 39.0728 90.7522C40.0672 88.0321 41.644 85.5617 43.6919 83.5134C45.7402 81.4655 48.2106 79.8887 50.9307 78.8943C53.6512 77.8995 56.5556 77.51 59.442 77.7538Z" fill="url(#paint1_linear_164_225)"/>
<path d="M28.7311 68.557C30.4679 66.8102 31.7977 64.7014 32.6254 62.3813C33.4532 60.0612 33.7585 57.5867 33.5197 55.1352L33.6067 55.2176C33.3629 52.3307 33.7523 49.425 34.7476 46.704C35.7429 43.983 37.3203 41.5122 39.3696 39.4639C41.4188 37.4156 43.8901 35.8393 46.6116 34.8452C49.3331 33.851 52.2388 33.4628 55.1257 33.7079L55.0386 33.6254C58.4901 33.9488 61.9576 33.1996 64.9677 31.4801C67.9779 29.7607 70.3841 27.1545 71.8592 24.0172C73.3338 20.8798 73.8049 17.364 73.2082 13.9491C72.6116 10.5341 70.9757 7.3864 68.5246 4.9351C66.0735 2.48379 62.9254 0.848248 59.5106 0.25153C56.0958 -0.345235 52.5797 0.125926 49.4426 1.60063C46.305 3.07533 43.699 5.48187 41.9797 8.49204C40.2599 11.5022 39.5107 14.9695 39.8342 18.4211L39.7518 18.3386C39.9955 21.2248 39.606 24.1294 38.6112 26.8497C37.6164 29.57 36.0401 32.0404 33.992 34.0886C31.9439 36.1367 29.4734 37.7132 26.7531 38.7078C24.0328 39.7026 21.1282 40.0921 18.242 39.8483L18.3245 39.9308C15.5044 39.6778 12.666 40.1411 10.0725 41.2771C7.47891 42.4131 5.21407 44.1855 3.48783 46.43C1.7616 48.674 0.629844 51.318 0.197358 54.116C-0.235082 56.9145 0.045773 59.7767 1.01389 62.4372C1.98202 65.0982 3.60615 67.4714 5.73573 69.3374C7.8653 71.2038 10.4314 72.502 13.1964 73.1123C15.9612 73.7222 18.8354 73.6246 21.5527 72.8287C24.2698 72.0323 26.742 70.5631 28.7402 68.557H28.7311Z" fill="url(#paint2_linear_164_225)"/>
<defs>
<linearGradient id="paint0_linear_164_225" x1="85.2636" y1="48.6775" x2="85.2636" y2="122.195" gradientUnits="userSpaceOnUse">
<stop stop-color="white"/>
<stop offset="1" stop-color="#F9FAFB"/>
</linearGradient>
<linearGradient id="paint1_linear_164_225" x1="60.8647" y1="4.31689" x2="60.8647" y2="117.611" gradientUnits="userSpaceOnUse">
<stop stop-color="white"/>
<stop offset="1" stop-color="#F9FAFB"/>
</linearGradient>
<linearGradient id="paint2_linear_164_225" x1="36.7299" y1="0" x2="36.7299" y2="73.5074" gradientUnits="userSpaceOnUse">
<stop stop-color="white"/>
<stop offset="1" stop-color="#F9FAFB"/>
</linearGradient>
</defs>
</svg>
