<svg width="711" height="121" viewBox="0 0 711 121" fill="none" xmlns="http://www.w3.org/2000/svg">
<path d="M683.202 93.3888C678.797 93.3888 674.828 92.4037 671.293 90.4333C667.758 88.405 664.947 85.5944 662.861 82.0014C660.832 78.4084 659.818 74.1779 659.818 69.31C659.818 64.3841 660.832 60.1247 662.861 56.5317C664.947 52.9387 667.758 50.157 671.293 48.1866C674.828 46.2163 678.797 45.2311 683.202 45.2311C687.143 45.2311 690.591 46.1004 693.546 47.8389C696.502 49.5775 698.791 52.2143 700.413 55.7493C702.036 59.2844 702.847 63.8046 702.847 69.31C702.847 74.7574 702.065 79.2776 700.5 82.8706C698.936 86.4057 696.676 89.0425 693.72 90.781C690.822 92.5196 687.316 93.3888 683.202 93.3888ZM685.549 82.2621C687.751 82.2621 689.75 81.7406 691.547 80.6975C693.343 79.6543 694.763 78.1766 695.806 76.2642C696.907 74.2938 697.458 71.9757 697.458 69.31C697.458 66.5863 696.907 64.2682 695.806 62.3558C694.763 60.4434 693.343 58.9656 691.547 57.9225C689.75 56.8794 687.751 56.3578 685.549 56.3578C683.289 56.3578 681.26 56.8794 679.464 57.9225C677.667 58.9656 676.219 60.4434 675.118 62.3558C674.074 64.2682 673.553 66.5863 673.553 69.31C673.553 71.9757 674.074 74.2938 675.118 76.2642C676.219 78.1766 677.667 79.6543 679.464 80.6975C681.26 81.7406 683.289 82.2621 685.549 82.2621ZM697.806 92.6934V83.1314L698.066 69.223L697.197 55.4016V28.1934H710.758V92.6934H697.806Z" fill="url(#paint0_linear_165_270)"/>
<path d="M624.626 92.694V45.9271H637.578V59.1401L635.753 55.3153C637.144 52.012 639.375 49.5201 642.446 47.8395C645.517 46.101 649.255 45.2317 653.66 45.2317V57.7492C653.08 57.6913 652.559 57.6623 652.095 57.6623C651.631 57.6043 651.139 57.5754 650.617 57.5754C646.908 57.5754 643.895 58.6475 641.577 60.7917C639.317 62.8779 638.187 66.1522 638.187 70.6145V92.694H624.626Z" fill="url(#paint1_linear_165_270)"/>
<path d="M597.924 92.694V83.5666L597.054 81.5673V65.225C597.054 62.3274 596.156 60.0673 594.36 58.4446C592.621 56.822 589.926 56.0107 586.276 56.0107C583.784 56.0107 581.321 56.4163 578.887 57.2277C576.511 57.981 574.482 59.0242 572.802 60.357L567.934 50.882C570.484 49.0855 573.555 47.6946 577.148 46.7095C580.741 45.7243 584.392 45.2317 588.101 45.2317C595.229 45.2317 600.763 46.9123 604.704 50.2735C608.645 53.6347 610.615 58.8793 610.615 66.0073V92.694H597.924ZM583.668 93.3894C580.017 93.3894 576.887 92.7809 574.28 91.5639C571.672 90.289 569.672 88.5794 568.282 86.4352C566.891 84.291 566.195 81.886 566.195 79.2203C566.195 76.4386 566.862 74.0046 568.195 71.9184C569.585 69.8321 571.759 68.2095 574.714 67.0504C577.67 65.8335 581.523 65.225 586.276 65.225H598.706V73.1354H587.753C584.566 73.1354 582.364 73.6569 581.147 74.7C579.988 75.7432 579.408 77.0471 579.408 78.6118C579.408 80.3503 580.075 81.7412 581.408 82.7843C582.798 83.7695 584.682 84.2621 587.058 84.2621C589.318 84.2621 591.346 83.7405 593.143 82.6974C594.939 81.5963 596.243 80.0026 597.054 77.9164L599.141 84.1751C598.156 87.1886 596.359 89.4777 593.751 91.0424C591.143 92.6071 587.782 93.3894 583.668 93.3894Z" fill="url(#paint2_linear_165_270)"/>
<path d="M533.555 93.3894C528.571 93.3894 524.138 92.3463 520.255 90.26C516.43 88.1738 513.388 85.3342 511.127 81.7412C508.925 78.0902 507.824 73.9467 507.824 69.3106C507.824 64.6165 508.925 60.4729 511.127 56.8799C513.388 53.229 516.43 50.3894 520.255 48.3611C524.138 46.2748 528.571 45.2317 533.555 45.2317C538.481 45.2317 542.885 46.2748 546.768 48.3611C550.65 50.3894 553.693 53.2 555.895 56.793C558.097 60.386 559.198 64.5585 559.198 69.3106C559.198 73.9467 558.097 78.0902 555.895 81.7412C553.693 85.3342 550.65 88.1738 546.768 90.26C542.885 92.3463 538.481 93.3894 533.555 93.3894ZM533.555 82.2627C535.815 82.2627 537.843 81.7412 539.64 80.698C541.436 79.6549 542.856 78.1771 543.899 76.2647C544.942 74.2944 545.464 71.9763 545.464 69.3106C545.464 66.5868 544.942 64.2688 543.899 62.3564C542.856 60.444 541.436 58.9662 539.64 57.9231C537.843 56.8799 535.815 56.3584 533.555 56.3584C531.295 56.3584 529.266 56.8799 527.47 57.9231C525.673 58.9662 524.225 60.444 523.123 62.3564C522.08 64.2688 521.559 66.5868 521.559 69.3106C521.559 71.9763 522.08 74.2944 523.123 76.2647C524.225 78.1771 525.673 79.6549 527.47 80.698C529.266 81.7412 531.295 82.2627 533.555 82.2627Z" fill="url(#paint3_linear_165_270)"/>
<path d="M477.19 93.3888C473.075 93.3888 469.54 92.5196 466.585 90.781C463.629 89.0425 461.369 86.4057 459.804 82.8706C458.24 79.2776 457.457 74.7574 457.457 69.31C457.457 63.8046 458.269 59.2844 459.891 55.7493C461.572 52.2143 463.89 49.5775 466.845 47.8389C469.801 46.1004 473.249 45.2311 477.19 45.2311C481.594 45.2311 485.535 46.2163 489.012 48.1866C492.547 50.157 495.329 52.9387 497.357 56.5317C499.443 60.1247 500.486 64.3841 500.486 69.31C500.486 74.1779 499.443 78.4084 497.357 82.0014C495.329 85.5944 492.547 88.405 489.012 90.4333C485.535 92.4037 481.594 93.3888 477.19 93.3888ZM449.547 92.6934V28.1934H463.108V55.4016L462.238 69.223L462.499 83.1314V92.6934H449.547ZM474.843 82.2621C477.103 82.2621 479.102 81.7406 480.841 80.6975C482.637 79.6543 484.057 78.1766 485.1 76.2642C486.201 74.2938 486.752 71.9757 486.752 69.31C486.752 66.5863 486.201 64.2682 485.1 62.3558C484.057 60.4434 482.637 58.9656 480.841 57.9225C479.102 56.8794 477.103 56.3578 474.843 56.3578C472.583 56.3578 470.554 56.8794 468.758 57.9225C466.961 58.9656 465.542 60.4434 464.498 62.3558C463.455 64.2682 462.934 66.5863 462.934 69.31C462.934 71.9757 463.455 74.2938 464.498 76.2642C465.542 78.1766 466.961 79.6543 468.758 80.6975C470.554 81.7406 472.583 82.2621 474.843 82.2621Z" fill="url(#paint4_linear_165_270)"/>
<path d="M407.701 93.3888C403.297 93.3888 399.327 92.4037 395.792 90.4333C392.257 88.405 389.446 85.5944 387.36 82.0014C385.332 78.4084 384.317 74.1779 384.317 69.31C384.317 64.3841 385.332 60.1247 387.36 56.5317C389.446 52.9387 392.257 50.157 395.792 48.1866C399.327 46.2163 403.297 45.2311 407.701 45.2311C411.642 45.2311 415.09 46.1004 418.045 47.8389C421.001 49.5775 423.29 52.2143 424.912 55.7493C426.535 59.2844 427.346 63.8046 427.346 69.31C427.346 74.7574 426.564 79.2776 424.999 82.8706C423.435 86.4057 421.175 89.0425 418.219 90.781C415.321 92.5196 411.815 93.3888 407.701 93.3888ZM410.048 82.2621C412.25 82.2621 414.249 81.7406 416.046 80.6975C417.842 79.6543 419.262 78.1766 420.305 76.2642C421.406 74.2938 421.957 71.9757 421.957 69.31C421.957 66.5863 421.406 64.2682 420.305 62.3558C419.262 60.4434 417.842 58.9656 416.046 57.9225C414.249 56.8794 412.25 56.3578 410.048 56.3578C407.788 56.3578 405.759 56.8794 403.963 57.9225C402.166 58.9656 400.718 60.4434 399.617 62.3558C398.573 64.2682 398.052 66.5863 398.052 69.31C398.052 71.9757 398.573 74.2938 399.617 76.2642C400.718 78.1766 402.166 79.6543 403.963 80.6975C405.759 81.7406 407.788 82.2621 410.048 82.2621ZM422.305 92.6934V83.1314L422.565 69.223L421.696 55.4016V28.1934H435.257V92.6934H422.305Z" fill="url(#paint5_linear_165_270)"/>
<path d="M360.578 92.694V83.5666L359.709 81.5673V65.225C359.709 62.3274 358.811 60.0673 357.014 58.4446C355.276 56.822 352.581 56.0107 348.93 56.0107C346.438 56.0107 343.975 56.4163 341.541 57.2277C339.165 57.981 337.137 59.0242 335.456 60.357L330.588 50.882C333.138 49.0855 336.209 47.6946 339.802 46.7095C343.395 45.7243 347.046 45.2317 350.755 45.2317C357.883 45.2317 363.418 46.9123 367.358 50.2735C371.299 53.6347 373.269 58.8793 373.269 66.0073V92.694H360.578ZM346.322 93.3894C342.671 93.3894 339.542 92.7809 336.934 91.5639C334.326 90.289 332.327 88.5794 330.936 86.4352C329.545 84.291 328.85 81.886 328.85 79.2203C328.85 76.4386 329.516 74.0046 330.849 71.9184C332.24 69.8321 334.413 68.2095 337.368 67.0504C340.324 65.8335 344.178 65.225 348.93 65.225H361.36V73.1354H350.408C347.22 73.1354 345.018 73.6569 343.801 74.7C342.642 75.7432 342.063 77.0471 342.063 78.6118C342.063 80.3503 342.729 81.7412 344.062 82.7843C345.453 83.7695 347.336 84.2621 349.712 84.2621C351.972 84.2621 354.001 83.7405 355.797 82.6974C357.594 81.5963 358.897 80.0026 359.709 77.9164L361.795 84.1751C360.81 87.1886 359.013 89.4777 356.406 91.0424C353.798 92.6071 350.437 93.3894 346.322 93.3894Z" fill="url(#paint6_linear_165_270)"/>
<path d="M299.798 93.3894C294.466 93.3894 289.772 92.3463 285.716 90.26C281.717 88.1738 278.617 85.3342 276.415 81.7412C274.212 78.0902 273.111 73.9467 273.111 69.3106C273.111 64.6165 274.183 60.4729 276.328 56.8799C278.53 53.229 281.514 50.3894 285.281 48.3611C289.048 46.2748 293.307 45.2317 298.059 45.2317C302.638 45.2317 306.752 46.2169 310.403 48.1872C314.112 50.0996 317.039 52.8813 319.183 56.5322C321.327 60.1252 322.399 64.4426 322.399 69.4844C322.399 70.006 322.37 70.6145 322.312 71.3099C322.254 71.9474 322.196 72.5558 322.138 73.1354H284.151V65.225H315.01L309.795 67.572C309.795 65.138 309.302 63.0228 308.317 61.2263C307.332 59.4298 305.97 58.039 304.231 57.0538C302.493 56.0107 300.464 55.4891 298.146 55.4891C295.828 55.4891 293.771 56.0107 291.975 57.0538C290.236 58.039 288.874 59.4588 287.889 61.3132C286.904 63.1097 286.411 65.254 286.411 67.7459V69.8321C286.411 72.382 286.962 74.6421 288.063 76.6125C289.222 78.5249 290.816 80.0026 292.844 81.0457C294.93 82.0309 297.364 82.5235 300.146 82.5235C302.638 82.5235 304.811 82.1468 306.665 81.3935C308.578 80.6401 310.316 79.51 311.881 78.0033L319.096 85.8267C316.952 88.2607 314.257 90.1441 311.012 91.477C307.766 92.7519 304.028 93.3894 299.798 93.3894Z" fill="url(#paint7_linear_165_270)"/>
<path d="M238.093 92.694V45.9271H251.045V59.1401L249.219 55.3153C250.61 52.012 252.841 49.5201 255.913 47.8395C258.984 46.101 262.722 45.2317 267.126 45.2317V57.7492C266.547 57.6913 266.025 57.6623 265.562 57.6623C265.098 57.6043 264.606 57.5754 264.084 57.5754C260.375 57.5754 257.362 58.6475 255.044 60.7917C252.783 62.8779 251.653 66.1522 251.653 70.6145V92.694H238.093Z" fill="url(#paint8_linear_165_270)"/>
<path d="M203.979 93.3888C199.864 93.3888 196.329 92.5196 193.374 90.781C190.418 89.0425 188.158 86.4057 186.593 82.8706C185.029 79.2776 184.246 74.7574 184.246 69.31C184.246 63.8046 185.058 59.2844 186.68 55.7493C188.361 52.2143 190.679 49.5775 193.634 47.8389C196.59 46.1004 200.038 45.2311 203.979 45.2311C208.383 45.2311 212.324 46.2163 215.801 48.1866C219.336 50.157 222.118 52.9387 224.146 56.5317C226.232 60.1247 227.275 64.3841 227.275 69.31C227.275 74.1779 226.232 78.4084 224.146 82.0014C222.118 85.5944 219.336 88.405 215.801 90.4333C212.324 92.4037 208.383 93.3888 203.979 93.3888ZM176.336 92.6934V28.1934H189.897V55.4016L189.027 69.223L189.288 83.1314V92.6934H176.336ZM201.632 82.2621C203.892 82.2621 205.891 81.7406 207.63 80.6975C209.426 79.6543 210.846 78.1766 211.889 76.2642C212.99 74.2938 213.541 71.9757 213.541 69.31C213.541 66.5863 212.99 64.2682 211.889 62.3558C210.846 60.4434 209.426 58.9656 207.63 57.9225C205.891 56.8794 203.892 56.3578 201.632 56.3578C199.372 56.3578 197.343 56.8794 195.547 57.9225C193.75 58.9656 192.331 60.4434 191.287 62.3558C190.244 64.2682 189.723 66.5863 189.723 69.31C189.723 71.9757 190.244 74.2938 191.287 76.2642C192.331 78.1766 193.75 79.6543 195.547 80.6975C197.343 81.7406 199.372 82.2621 201.632 82.2621Z" fill="url(#paint9_linear_165_270)"/>
<path d="M91.7176 52.7488C90.0094 54.4675 88.7013 56.5417 87.8864 58.8233C87.0715 61.1053 86.77 63.5388 87.003 65.9507L86.9219 65.8695C87.1617 68.7087 86.7785 71.5654 85.8 74.2414C84.8215 76.9169 83.271 79.3468 81.2567 81.3616C79.2419 83.3759 76.812 84.9268 74.136 85.9049C71.4605 86.8834 68.6033 87.2666 65.7646 87.0268L65.8458 87.1079C62.45 86.7919 59.0393 87.5307 56.0785 89.2241C53.1181 90.9175 50.7518 93.4826 49.3027 96.5701C47.8536 99.6576 47.3916 103.116 47.9802 106.476C48.5693 109.835 50.1798 112.932 52.5925 115.342C55.0053 117.753 58.1027 119.36 61.4624 119.946C64.8226 120.532 68.2811 120.067 71.3672 118.615C74.4533 117.163 77.0162 114.794 78.7069 111.832C80.3976 108.87 81.1336 105.459 80.8145 102.063L80.9001 102.144C80.6603 99.3055 81.043 96.4484 82.0215 93.7724C83.0001 91.0969 84.551 88.667 86.5653 86.6522C88.5801 84.6379 91.01 83.0869 93.6855 82.1089C96.3615 81.1303 99.2182 80.7472 102.057 80.987L101.972 80.9059C104.746 81.1551 107.538 80.7003 110.089 79.5834C112.64 78.4665 114.869 76.7236 116.567 74.5163C118.266 72.3091 119.38 69.7084 119.805 66.9563C120.231 64.2037 119.955 61.3884 119.003 58.7706C118.051 56.1532 116.454 53.8184 114.36 51.9826C112.265 50.1468 109.741 48.8694 107.021 48.269C104.302 47.6687 101.474 47.7642 98.8013 48.5471C96.1285 49.3305 93.6968 50.7755 91.7312 52.7488H91.7176Z" fill="url(#paint10_linear_165_270)"/>
<path d="M58.4675 76.4792L58.3819 76.3981C60.7946 76.641 63.2313 76.3449 65.516 75.5309C67.8003 74.7169 69.8755 73.4057 71.5909 71.6916C73.306 69.9774 74.6194 67.9032 75.4348 65.6193C76.2506 63.3355 76.5485 60.8993 76.3074 58.4861L76.393 58.5672C76.1532 55.7281 76.5363 52.8714 77.5144 50.1954C78.493 47.5199 80.0439 45.09 82.0582 43.0752C84.073 41.0609 86.5029 39.5099 89.1784 38.5319C91.8544 37.5532 94.7111 37.1703 97.5502 37.41L97.4646 37.3289C100.861 37.648 104.272 36.9113 107.235 35.2199C110.197 33.5285 112.565 30.9644 114.017 27.8775C115.468 24.7907 115.932 21.3312 115.345 17.971C114.758 14.6107 113.149 11.5134 110.737 9.10137C108.325 6.68938 105.228 5.0801 101.867 4.49316C98.5071 3.90617 95.0478 4.37002 91.9608 5.82146C88.8737 7.27285 86.31 9.64121 84.6184 12.6034C82.9268 15.5656 82.1903 18.9775 82.5094 22.3737L82.4283 22.288C82.6685 25.1271 82.2863 27.9845 81.3082 30.6606C80.3301 33.3366 78.7792 35.7669 76.7649 37.7819C74.7501 39.7962 72.3198 41.3471 69.6438 42.3252C66.9674 43.3033 64.1102 43.6855 61.2711 43.4453L61.3522 43.5309C58.9394 43.288 56.5023 43.5841 54.218 44.3981C51.9338 45.2117 49.8586 46.5233 48.1431 48.2374C46.4276 49.9515 45.1147 52.0258 44.2988 54.3096C43.4835 56.5935 43.1855 59.0297 43.4267 61.4429L43.3456 61.3617C43.5844 64.2004 43.2009 67.0572 42.2223 69.7327C41.2434 72.4078 39.6928 74.8376 37.6785 76.852C35.664 78.8663 33.2344 80.4168 30.5591 81.3958C27.8837 82.3743 25.0271 82.7579 22.1883 82.519L22.2695 82.6001C18.8733 82.281 15.4614 83.0175 12.4992 84.7091C9.53699 86.4007 7.16864 88.9644 5.71725 92.0514C4.26581 95.1385 3.80192 98.5978 4.3889 101.958C4.97589 105.318 6.58517 108.416 8.99716 110.827C11.4092 113.24 14.5065 114.849 17.8667 115.436C21.227 116.023 24.6865 115.559 27.7734 114.107C30.8602 112.656 33.4243 110.288 35.1157 107.326C36.8073 104.363 37.5438 100.952 37.2247 97.5553L37.3103 97.6364C37.0705 94.7973 37.4536 91.9406 38.4322 89.2646C39.4102 86.5891 40.9612 84.1592 42.9755 82.1444C44.9903 80.1301 47.4201 78.5791 50.0957 77.6011C52.7717 76.6225 55.6284 76.2394 58.4675 76.4792Z" fill="url(#paint11_linear_165_270)"/>
<path d="M28.2603 67.4335C29.9686 65.7153 31.2765 63.641 32.0907 61.359C32.9049 59.0769 33.2053 56.643 32.9704 54.2316L33.056 54.3127C32.8162 51.4731 33.1991 48.6151 34.1782 45.9386C35.1572 43.2622 36.7087 40.8319 38.7244 38.8171C40.7401 36.8024 43.1708 35.252 45.8477 34.2741C48.5246 33.2962 51.3827 32.9145 54.2223 33.1555L54.1366 33.0744C57.5315 33.3924 60.9422 32.6556 63.903 30.9642C66.8639 29.273 69.2306 26.7095 70.6815 23.6236C72.132 20.5377 72.5953 17.0794 72.0085 13.7205C71.4216 10.3615 69.8125 7.26535 67.4016 4.85422C64.9906 2.44309 61.8941 0.834347 58.5353 0.247407C55.1765 -0.339577 51.718 0.123863 48.6323 1.5744C45.5462 3.02494 42.9829 5.39203 41.2917 8.35287C39.6002 11.3137 38.8632 14.7242 39.1814 18.1192L39.1003 18.038C39.3401 20.877 38.957 23.734 37.9784 26.4097C36.9999 29.0854 35.4495 31.5153 33.4349 33.5299C31.4204 35.5445 28.9904 37.0951 26.3147 38.0734C23.639 39.0519 20.782 39.4351 17.9431 39.1953L18.0242 39.2764C15.2503 39.0276 12.4584 39.4833 9.90738 40.6006C7.35635 41.718 5.12862 43.4614 3.43067 45.6691C1.73273 47.8763 0.619522 50.477 0.194124 53.2292C-0.231229 55.9818 0.0450229 58.797 0.997278 61.414C1.94953 64.0313 3.54705 66.3657 5.64173 68.201C7.7364 70.0369 10.2605 71.3138 12.9801 71.9141C15.6997 72.5141 18.5268 72.4181 21.1995 71.6351C23.8721 70.8518 26.3038 69.4067 28.2692 67.4335H28.2603Z" fill="url(#paint12_linear_165_270)"/>
<defs>
<linearGradient id="paint0_linear_165_270" x1="685.288" y1="93.3888" x2="685.288" y2="28.1934" gradientUnits="userSpaceOnUse">
<stop stop-color="#070607"/>
<stop offset="1" stop-color="#4D0790"/>
</linearGradient>
<linearGradient id="paint1_linear_165_270" x1="639.143" y1="92.694" x2="639.143" y2="45.2317" gradientUnits="userSpaceOnUse">
<stop stop-color="#070607"/>
<stop offset="1" stop-color="#4D0790"/>
</linearGradient>
<linearGradient id="paint2_linear_165_270" x1="588.405" y1="93.3894" x2="588.405" y2="45.2317" gradientUnits="userSpaceOnUse">
<stop stop-color="#070607"/>
<stop offset="1" stop-color="#4D0790"/>
</linearGradient>
<linearGradient id="paint3_linear_165_270" x1="533.511" y1="93.3894" x2="533.511" y2="45.2317" gradientUnits="userSpaceOnUse">
<stop stop-color="#070607"/>
<stop offset="1" stop-color="#4D0790"/>
</linearGradient>
<linearGradient id="paint4_linear_165_270" x1="475.017" y1="93.3888" x2="475.017" y2="28.1934" gradientUnits="userSpaceOnUse">
<stop stop-color="#070607"/>
<stop offset="1" stop-color="#4D0790"/>
</linearGradient>
<linearGradient id="paint5_linear_165_270" x1="409.787" y1="93.3888" x2="409.787" y2="28.1934" gradientUnits="userSpaceOnUse">
<stop stop-color="#070607"/>
<stop offset="1" stop-color="#4D0790"/>
</linearGradient>
<linearGradient id="paint6_linear_165_270" x1="351.06" y1="93.3894" x2="351.06" y2="45.2317" gradientUnits="userSpaceOnUse">
<stop stop-color="#070607"/>
<stop offset="1" stop-color="#4D0790"/>
</linearGradient>
<linearGradient id="paint7_linear_165_270" x1="297.755" y1="93.3894" x2="297.755" y2="45.2317" gradientUnits="userSpaceOnUse">
<stop stop-color="#070607"/>
<stop offset="1" stop-color="#4D0790"/>
</linearGradient>
<linearGradient id="paint8_linear_165_270" x1="252.61" y1="92.694" x2="252.61" y2="45.2317" gradientUnits="userSpaceOnUse">
<stop stop-color="#070607"/>
<stop offset="1" stop-color="#4D0790"/>
</linearGradient>
<linearGradient id="paint9_linear_165_270" x1="201.806" y1="93.3888" x2="201.806" y2="28.1934" gradientUnits="userSpaceOnUse">
<stop stop-color="#070607"/>
<stop offset="1" stop-color="#4D0790"/>
</linearGradient>
<linearGradient id="paint10_linear_165_270" x1="83.8657" y1="47.8799" x2="83.8657" y2="120.192" gradientUnits="userSpaceOnUse">
<stop stop-color="#4D0790"/>
<stop offset="1" stop-color="#070607"/>
</linearGradient>
<linearGradient id="paint11_linear_165_270" x1="59.8669" y1="4.24585" x2="59.8669" y2="115.683" gradientUnits="userSpaceOnUse">
<stop stop-color="#4D0790"/>
<stop offset="1" stop-color="#070607"/>
</linearGradient>
<linearGradient id="paint12_linear_165_270" x1="36.1279" y1="0" x2="36.1279" y2="72.3027" gradientUnits="userSpaceOnUse">
<stop stop-color="#4D0790"/>
<stop offset="1" stop-color="#070607"/>
</linearGradient>
</defs>
</svg>
